<mxfile host="app.diagrams.net" agent="Mozilla/5.0 (X11; Linux x86_64; rv:128.0) Gecko/20100101 Firefox/128.0" version="26.1.0">
  <diagram name="Page-1" id="aUtRU4WahvTk5GEDhVFz">
    <mxGraphModel dx="654" dy="742" grid="0" gridSize="1" guides="1" tooltips="1" connect="1" arrows="1" fold="1" page="1" pageScale="1" pageWidth="827" pageHeight="1169" background="light-dark(#1a5fb4, #121212)" math="0" shadow="0">
      <root>
        <mxCell id="0" />
        <mxCell id="1" parent="0" />
        <mxCell id="Y5kCR9Z6bR0utiabE44V-1" value="app" style="rounded=0;whiteSpace=wrap;html=1;" vertex="1" parent="1">
          <mxGeometry x="320" y="60" width="120" height="60" as="geometry" />
        </mxCell>
        <mxCell id="Y5kCR9Z6bR0utiabE44V-2" value="navigationPanel" style="rounded=0;whiteSpace=wrap;html=1;" vertex="1" parent="1">
          <mxGeometry x="501" y="141" width="120" height="60" as="geometry" />
        </mxCell>
        <mxCell id="Y5kCR9Z6bR0utiabE44V-3" value="mainPage" style="rounded=0;whiteSpace=wrap;html=1;" vertex="1" parent="1">
          <mxGeometry x="120" y="140" width="120" height="60" as="geometry" />
        </mxCell>
        <mxCell id="Y5kCR9Z6bR0utiabE44V-4" value="forumPage" style="rounded=0;whiteSpace=wrap;html=1;" vertex="1" parent="1">
          <mxGeometry y="260" width="120" height="60" as="geometry" />
        </mxCell>
        <mxCell id="Y5kCR9Z6bR0utiabE44V-5" value="profilPage" style="rounded=0;whiteSpace=wrap;html=1;" vertex="1" parent="1">
          <mxGeometry x="200" y="260" width="120" height="60" as="geometry" />
        </mxCell>
        <mxCell id="Y5kCR9Z6bR0utiabE44V-6" value="logout" style="rounded=0;whiteSpace=wrap;html=1;" vertex="1" parent="1">
          <mxGeometry x="640" y="260" width="120" height="60" as="geometry" />
        </mxCell>
        <mxCell id="Y5kCR9Z6bR0utiabE44V-7" value="login" style="rounded=0;whiteSpace=wrap;html=1;" vertex="1" parent="1">
          <mxGeometry x="440" y="260" width="120" height="60" as="geometry" />
        </mxCell>
        <mxCell id="Y5kCR9Z6bR0utiabE44V-8" value="" style="endArrow=none;html=1;rounded=0;entryX=0.017;entryY=0.65;entryDx=0;entryDy=0;entryPerimeter=0;exitX=0.5;exitY=0;exitDx=0;exitDy=0;" edge="1" parent="1" source="Y5kCR9Z6bR0utiabE44V-3" target="Y5kCR9Z6bR0utiabE44V-1">
          <mxGeometry width="50" height="50" relative="1" as="geometry">
            <mxPoint x="360" y="440" as="sourcePoint" />
            <mxPoint x="410" y="390" as="targetPoint" />
            <Array as="points" />
          </mxGeometry>
        </mxCell>
        <mxCell id="Y5kCR9Z6bR0utiabE44V-10" value="" style="endArrow=none;html=1;rounded=0;" edge="1" parent="1" source="Y5kCR9Z6bR0utiabE44V-4" target="Y5kCR9Z6bR0utiabE44V-3">
          <mxGeometry width="50" height="50" relative="1" as="geometry">
            <mxPoint x="360" y="440" as="sourcePoint" />
            <mxPoint x="410" y="390" as="targetPoint" />
            <Array as="points" />
          </mxGeometry>
        </mxCell>
        <mxCell id="Y5kCR9Z6bR0utiabE44V-12" value="" style="endArrow=none;html=1;rounded=0;" edge="1" parent="1" source="Y5kCR9Z6bR0utiabE44V-5" target="Y5kCR9Z6bR0utiabE44V-3">
          <mxGeometry width="50" height="50" relative="1" as="geometry">
            <mxPoint x="360" y="440" as="sourcePoint" />
            <mxPoint x="410" y="390" as="targetPoint" />
          </mxGeometry>
        </mxCell>
        <mxCell id="Y5kCR9Z6bR0utiabE44V-13" value="" style="endArrow=none;html=1;rounded=0;" edge="1" parent="1" source="Y5kCR9Z6bR0utiabE44V-7" target="Y5kCR9Z6bR0utiabE44V-2">
          <mxGeometry width="50" height="50" relative="1" as="geometry">
            <mxPoint x="360" y="440" as="sourcePoint" />
            <mxPoint x="410" y="390" as="targetPoint" />
          </mxGeometry>
        </mxCell>
        <mxCell id="Y5kCR9Z6bR0utiabE44V-14" value="" style="endArrow=none;html=1;rounded=0;" edge="1" parent="1" source="Y5kCR9Z6bR0utiabE44V-6" target="Y5kCR9Z6bR0utiabE44V-2">
          <mxGeometry width="50" height="50" relative="1" as="geometry">
            <mxPoint x="360" y="440" as="sourcePoint" />
            <mxPoint x="410" y="390" as="targetPoint" />
          </mxGeometry>
        </mxCell>
        <mxCell id="Y5kCR9Z6bR0utiabE44V-16" value="" style="endArrow=none;html=1;rounded=0;entryX=1;entryY=0.75;entryDx=0;entryDy=0;exitX=0.5;exitY=0;exitDx=0;exitDy=0;" edge="1" parent="1" source="Y5kCR9Z6bR0utiabE44V-2" target="Y5kCR9Z6bR0utiabE44V-1">
          <mxGeometry width="50" height="50" relative="1" as="geometry">
            <mxPoint x="360" y="440" as="sourcePoint" />
            <mxPoint x="410" y="390" as="targetPoint" />
          </mxGeometry>
        </mxCell>
      </root>
    </mxGraphModel>
  </diagram>
</mxfile>
